# xmcd
#
# Track frame offsets: 
#        150
#        15931
#        33215
#        51926
#        71332
#        87463
#        103742
#        124014
#        140399
#        155916
#        173662
#        192262
#
# Disc length: 2855 seconds
#
# Revision: 0
# Processed by: cddbd v1.5.2PL0 Copyright (c) Steve Scherf et al.
# Submitted via: ExactAudioCopy v0.95a5
#
DISCID=9a0b250c
DTITLE=Cyril Paulus - Banquise
DYEAR=2006
DGENRE=Chanson
TTITLE0=Tout nous appartient
TTITLE1=Un autre nom
TTITLE2=Sur ta banquise
TTITLE3=Je t'oublie
TTITLE4=C'est si beau
TTITLE5=Le silence
TTITLE6=J'aimerais dormir
TTITLE7=Indefiniment
TTITLE8=Dans le decor
TTITLE9=Les cris
TTITLE10=Moments voles
TTITLE11=Tout doux, dors
EXTD=
EXTT0=
EXTT1=
EXTT2=
EXTT3=
EXTT4=
EXTT5=
EXTT6=
EXTT7=
EXTT8=
EXTT9=
EXTT10=
EXTT11=
PLAYORDER=
